<svg id="icon" viewBox="0 0 33 30" fill="none" xmlns="http://www.w3.org/2000/svg">
<path d="M16.5 1C18.6359 1 20.1561 2.51006 20.1561 4.12734V25.8727C20.1561 27.4899 18.6359 29 16.5 29C14.3641 29 12.8439 27.4899 12.8439 25.8727V4.12734C12.8439 2.51006 14.3641 1 16.5 1ZM28.3439 8.49915C30.4798 8.49915 32 10.0092 32 11.6265V25.8727C32 27.4899 30.4798 29 28.3439 29C26.2079 29 24.6878 27.4899 24.6878 25.8727V11.6265C24.6878 10.0092 26.2079 8.49915 28.3439 8.49915ZM4.65612 15.9983C6.79206 15.9983 8.31224 17.5084 8.31224 19.1256V25.8727C8.31224 27.4899 6.79206 29 4.65612 29C2.52018 29 1 27.4899 1 25.8727V19.1256C1 17.5084 2.52018 15.9983 4.65612 15.9983Z" stroke="black" stroke-width="2"/>
</svg>
