<svg id="icon" viewBox="0 0 14 14" xmlns="http://www.w3.org/2000/svg">
<path d="M13.8233 1.77347L9.74002 0.0234797C9.62044 -0.0278442 9.47984 0.00715563 9.39759 0.109229L8.23093 1.56754C8.1755 1.63637 8.1545 1.72622 8.17375 1.81254C8.19182 1.89479 8.2455 1.96247 8.31842 2.00272L4.65395 3.37703C4.34652 3.49253 4.08345 3.71128 3.91488 3.99246L2.70388 6.01077C2.44606 6.44069 2.42564 6.96509 2.65021 7.41308L2.73538 7.58341H1.45847C1.29747 7.58341 1.16679 7.71408 1.16679 7.87508V13.4167H0.291796C0.130797 13.4167 0.00012207 13.5474 0.00012207 13.7084C0.00012207 13.8694 0.130797 14.0001 0.291796 14.0001H10.2084C10.3694 14.0001 10.5001 13.8694 10.5001 13.7084C10.5001 13.5474 10.3694 13.4167 10.2084 13.4167H9.33342V9.33343C9.33342 9.31125 9.32524 9.292 9.32117 9.2716C9.86834 8.90118 10.4937 8.32953 11.0391 7.44636C11.966 5.9472 12.4869 4.7403 12.701 4.19721L12.7337 4.21353C12.8585 4.27595 12.9921 4.30685 13.1257 4.30685C13.2849 4.30685 13.4436 4.2631 13.5847 4.17503C13.8449 4.01461 14.0001 3.73636 14.0001 3.43071V2.04122C14.0001 1.92454 13.9306 1.81954 13.8233 1.77347ZM8.7501 13.4167H1.75014V8.16676H3.21256C3.21956 8.16676 3.22656 8.16733 3.23413 8.16676H5.54644C5.28337 8.32658 4.96019 8.52783 4.55127 8.788C4.24035 8.98575 4.02745 9.29257 3.9516 9.65307C3.87517 10.0136 3.94577 10.3816 4.15167 10.6896C4.41242 11.0822 4.84234 11.2957 5.28217 11.2957C5.52016 11.2957 5.76166 11.2327 5.98041 11.1026L7.98472 9.90039C8.09965 9.87239 8.3814 9.79132 8.75004 9.60757V13.4167H8.7501ZM4.87794 6.84669C5.32419 6.65537 5.92094 6.30887 6.22369 5.95595C6.45644 6.09244 6.82276 6.26802 7.28068 6.35787C6.95518 6.76094 6.62851 7.25094 6.49026 7.59804C6.46633 7.59161 6.44301 7.58346 6.41676 7.58346H5.21862C5.15677 7.29351 5.01387 7.03744 4.87794 6.84669ZM10.5444 7.13951C9.39409 9.00033 7.83425 9.33693 7.8191 9.33982C7.78643 9.34682 7.75435 9.35907 7.72578 9.376L5.68179 10.6022C5.32597 10.8162 4.86747 10.713 4.63647 10.3665C4.5198 10.1909 4.47955 9.98092 4.52272 9.775C4.56647 9.56967 4.6878 9.39407 4.86515 9.2815C6.43256 8.28343 6.71546 8.17376 6.70964 8.16733C6.87121 8.16733 7.00071 8.05066 7.00071 7.88966C7.03046 7.70708 7.56188 6.85309 8.08278 6.33217C8.1662 6.24874 8.19128 6.12334 8.14578 6.01424C8.10085 5.90517 7.9941 5.83399 7.87628 5.83399C6.96861 5.83399 6.31529 5.32007 6.30886 5.31482C6.22136 5.24539 6.10411 5.21275 6.00261 5.26175C5.90111 5.31017 5.83929 5.39417 5.83929 5.50617C5.73604 5.75642 4.61662 6.38934 4.37512 6.41674C4.25495 6.41674 4.1482 6.48967 4.10445 6.60166C4.0607 6.71366 4.08988 6.84084 4.17795 6.92249C4.18145 6.92599 4.48712 7.21648 4.61195 7.58341H3.38813L3.17288 7.15173C3.03813 6.88281 3.04981 6.56841 3.20495 6.31056L4.41595 4.29225C4.51745 4.12308 4.67495 3.99243 4.85927 3.923L9.02542 2.36084L12.1772 3.9364C11.9841 4.42935 11.469 5.64327 10.5444 7.13951ZM13.4167 3.43186C13.4167 3.57886 13.3199 3.65411 13.2785 3.67978C13.237 3.70546 13.1256 3.75796 12.995 3.69261L8.91167 1.65097L9.71434 0.648226L13.4167 2.23489V3.43186H13.4167Z" fill="black" fill-opacity="0.5"/>
</svg>
