<svg id="icon" viewBox="0 0 165 59" fill="none" xmlns="http://www.w3.org/2000/svg">
<path d="M58.875 47.5859C55.8412 47.5859 53.2175 46.9414 51.0039 45.6523C48.8034 44.3503 47.1042 42.5404 45.9063 40.2227C44.7083 37.8919 44.1094 35.1901 44.1094 32.1172C44.1094 29.0182 44.7083 26.3099 45.9063 23.9922C47.1042 21.6615 48.8034 19.8516 51.0039 18.5625C53.2175 17.2604 55.8412 16.6094 58.875 16.6094C61.9089 16.6094 64.526 17.2604 66.7266 18.5625C68.9401 19.8516 70.6458 21.6615 71.8438 23.9922C73.0417 26.3099 73.6406 29.0182 73.6406 32.1172C73.6406 35.1901 73.0417 37.8919 71.8438 40.2227C70.6458 42.5404 68.9401 44.3503 66.7266 45.6523C64.526 46.9414 61.9089 47.5859 58.875 47.5859ZM58.9141 41.1406C60.2943 41.1406 61.4466 40.75 62.3711 39.9687C63.2956 39.1745 63.9922 38.0937 64.4609 36.7266C64.9427 35.3594 65.1836 33.8034 65.1836 32.0586C65.1836 30.3138 64.9427 28.7578 64.4609 27.3906C63.9922 26.0234 63.2956 24.9427 62.3711 24.1484C61.4466 23.3542 60.2943 22.957 58.9141 22.957C57.5208 22.957 56.349 23.3542 55.3984 24.1484C54.4609 24.9427 53.7513 26.0234 53.2695 27.3906C52.8008 28.7578 52.5664 30.3138 52.5664 32.0586C52.5664 33.8034 52.8008 35.3594 53.2695 36.7266C53.7513 38.0937 54.4609 39.1745 55.3984 39.9687C56.349 40.75 57.5208 41.1406 58.9141 41.1406Z" fill="black"/>
<path d="M95.0078 17V23.25H76.9414V17H95.0078ZM81.043 9.8125H89.3633V37.7812C89.3633 38.5495 89.4805 39.1484 89.7149 39.5781C89.9492 39.9948 90.2747 40.2878 90.6914 40.457C91.1211 40.6263 91.6159 40.7109 92.1758 40.7109C92.5664 40.7109 92.957 40.6784 93.3477 40.6133C93.7383 40.5352 94.0378 40.4766 94.2461 40.4375L95.5547 46.6289C95.138 46.7591 94.5521 46.9089 93.7969 47.0781C93.0417 47.2604 92.1237 47.3711 91.043 47.4102C89.0378 47.4883 87.28 47.2214 85.7695 46.6094C84.2721 45.9974 83.1068 45.0469 82.2734 43.7578C81.4401 42.4687 81.03 40.8411 81.043 38.875V9.8125Z" fill="black"/>
<path d="M100.428 47V17H108.748V47H100.428ZM104.607 13.1328C103.37 13.1328 102.309 12.7227 101.424 11.9023C100.551 11.069 100.115 10.0729 100.115 8.91406C100.115 7.76822 100.551 6.78515 101.424 5.96484C102.309 5.13151 103.37 4.71484 104.607 4.71484C105.844 4.71484 106.899 5.13151 107.771 5.96484C108.657 6.78515 109.1 7.76822 109.1 8.91406C109.1 10.0729 108.657 11.069 107.771 11.9023C106.899 12.7227 105.844 13.1328 104.607 13.1328Z" fill="black"/>
<path d="M131.546 17V23.25H113.03V17H131.546ZM117.269 47V14.832C117.269 12.6575 117.692 10.8542 118.538 9.42187C119.397 7.98958 120.569 6.91536 122.054 6.19921C123.538 5.48307 125.224 5.12499 127.112 5.12499C128.388 5.12499 129.554 5.22265 130.608 5.41796C131.676 5.61328 132.47 5.78906 132.991 5.94531L131.507 12.1953C131.181 12.0911 130.778 11.9935 130.296 11.9023C129.827 11.8112 129.345 11.7656 128.851 11.7656C127.627 11.7656 126.774 12.0521 126.292 12.625C125.81 13.1849 125.569 13.9727 125.569 14.9883V47H117.269Z" fill="black"/>
<path d="M141.766 58.25C140.711 58.25 139.721 58.1654 138.797 57.9961C137.885 57.8398 137.13 57.638 136.531 57.3906L138.406 51.1797C139.383 51.4792 140.262 51.6419 141.043 51.668C141.837 51.694 142.521 51.5117 143.094 51.1211C143.68 50.7305 144.155 50.0664 144.52 49.1289L145.008 47.8594L134.246 17H142.996L149.207 39.0312H149.52L155.789 17H164.598L152.938 50.2422C152.378 51.8568 151.616 53.263 150.652 54.4609C149.702 55.6719 148.497 56.6029 147.039 57.2539C145.581 57.918 143.823 58.25 141.766 58.25Z" fill="black"/>
<path d="M6.99439 19.1155C6.00071 18.2924 4.49922 18.6117 3.92644 19.7679L0.413736 26.8585C-0.0381349 27.7707 0.267173 28.8767 1.12297 29.4278L23.7455 43.9973C24.6296 44.5667 25.8037 44.3541 26.4321 43.5109L52.3194 8.77264C52.934 7.9479 52.8228 6.79147 52.0624 6.0989L45.9981 0.575797C45.0921 -0.249339 43.6638 -0.0730811 42.9856 0.947559L23.6517 30.0432C22.9944 31.0324 21.6248 31.2342 20.7101 30.4765L6.99439 19.1155Z" fill="black"/>
</svg>
