<svg id="icon" viewBox="0 0 46 46" xmlns="http://www.w3.org/2000/svg">
<path d="M7.29161 19.826C7.82626 19.9692 8.37397 19.6545 8.51711 19.1198C9.70777 14.6919 12.7865 11.1017 16.9692 9.26571C21.152 7.42972 25.8786 7.59384 29.9438 9.71476C30.224 9.86044 30.5428 9.86024 30.8101 9.7429C31.0116 9.65447 31.1841 9.50014 31.2931 9.29062C31.5478 8.80093 31.3586 8.19595 30.869 7.94131C26.2635 5.53991 20.9049 5.35401 16.1654 7.43439C11.4258 9.51478 7.93359 13.5857 6.58543 18.6004C6.44142 19.1332 6.75876 19.682 7.29161 19.826Z" fill="black"/>
<path d="M28.6723 25.9707C29.1777 25.7488 29.4079 25.1585 29.186 24.653L26.3725 18.2433L28.2039 17.4395C28.7093 17.2176 28.9395 16.6273 28.7176 16.1218C28.4958 15.6164 27.9055 15.3863 27.4 15.6082L21.906 18.0197C21.4005 18.2416 21.1704 18.8319 21.3922 19.3374C21.6141 19.8428 22.2044 20.073 22.7099 19.8511L24.5412 19.0473L27.3546 25.4569C27.5765 25.9624 28.1668 26.1925 28.6723 25.9707Z" fill="black"/>
<path d="M15.7864 23.9821L17.3941 27.6448C18.0589 29.1594 19.8324 29.8509 21.3469 29.1861C22.8615 28.5213 23.553 26.7478 22.8882 25.2333L21.2805 21.5706C20.6157 20.056 18.8422 19.3645 17.3277 20.0293C15.8131 20.6941 15.1216 22.4676 15.7864 23.9821ZM19.4491 22.3745L21.0568 26.0372C21.2786 26.5426 21.0485 27.1329 20.543 27.3548C20.0376 27.5767 19.4473 27.3465 19.2255 26.841L17.6177 23.1783C17.3959 22.6728 17.6261 22.0825 18.1315 21.8607C18.637 21.6388 19.2272 21.869 19.4491 22.3745Z" fill="black"/>
<path d="M37.1035 28.0711C35.6919 31.991 32.8252 35.0687 29.0307 36.7342C25.2361 38.3998 21.0311 38.4284 17.1895 36.8121C16.6826 36.5978 16.0956 36.838 15.8794 37.3457C15.6641 37.8552 15.9034 38.4404 16.413 38.6557C20.7641 40.4874 25.5309 40.4547 29.8328 38.5664C34.1346 36.6782 37.3854 33.1916 38.9862 28.7474C39.1707 28.2274 38.9012 27.6533 38.3831 27.4679C37.8648 27.2826 37.2906 27.552 37.1035 28.0711Z" fill="black"/>
<path d="M13.7556 1.93958C2.14313 7.03678 -3.15771 20.6318 1.9395 32.2443C7.0367 43.8568 20.6317 49.1576 32.2442 44.0604C43.8567 38.9632 49.1575 25.3682 44.0603 13.7557C38.9631 2.1432 25.3682 -3.15767 13.7556 1.93958ZM31.4404 42.2291C20.8369 46.8834 8.42512 42.0439 3.77081 31.4404C-0.883495 20.837 3.95598 8.4252 14.5595 3.77089C25.1629 -0.883418 37.5747 3.95606 42.229 14.5595C46.8833 25.163 42.0438 37.5748 31.4404 42.2291Z" fill="black"/>
<path d="M37.0251 20.12L34.2781 21.3258L33.4743 19.4945L34.39 19.0925C34.8954 18.8707 35.1256 18.2803 34.9038 17.7749C34.6819 17.2694 34.0916 17.0393 33.5861 17.2611L32.6704 17.6631L31.8666 15.8318L34.6136 14.626C35.119 14.4041 35.3492 13.8138 35.1273 13.3083C34.9055 12.8029 34.3152 12.5728 33.8097 12.7947L30.147 14.4024C29.6416 14.6242 29.4114 15.2146 29.6333 15.72L32.8487 23.0454C33.0705 23.5508 33.6609 23.781 34.1663 23.5591L37.829 21.9514C38.3345 21.7295 38.5646 21.1392 38.3428 20.6338C38.1209 20.1283 37.5306 19.8981 37.0251 20.12Z" fill="black"/>
<path d="M13.7025 31.8339L13.2341 23.3027C13.2036 22.7505 12.7322 22.3283 12.1817 22.358C11.6284 22.3912 11.2065 22.8582 11.237 23.4105L11.5593 29.2799L7.45712 25.0696C7.07212 24.6751 6.44099 24.6703 6.043 25.0526C5.64847 25.4376 5.64005 26.0703 6.02597 26.4667L11.9884 32.5863C12.2788 32.8847 12.725 32.9706 13.1059 32.8034C13.4868 32.6362 13.7255 32.2497 13.7025 31.8339Z" fill="black"/>
</svg>
